<?xml version="1.0" encoding="UTF-8"?><svg id="Layer_2" xmlns="http://www.w3.org/2000/svg" viewBox="0 0 228.25 61.06"><defs><style>.cls-1{fill:#fff;}.cls-2{fill:#059862;}</style></defs><g id="Layer_1-2"><g><path class="cls-1" d="M82.85,24.75c-2.8,2.49-5.26,5.35-7.88,8.06h0l-.75,.76v-.99c0-3.11,.07-6.21-.03-9.31-.05-1.54-.25-3.11-.69-4.57-1.63-5.56-7.8-8.24-14.11-6.05-6.09,2.11-9.45,6.65-10.37,12.86-.59,4.07-.81,8.23-.88,12.35-.13,7.67-.04,15.35-.04,23.16h-10.9v-17.17c-.08-6.87-.13-13.52-.27-20.17-.04-1.46-.26-2.95-.64-4.36-1.62-6.12-7.82-9.02-14.28-6.62-7.26,2.7-10.38,8.5-10.67,15.76-.42,10.11-.35,20.23-.48,30.35,0,.72,0,1.44,0,2.25H0V2.69H10.8v5.63C16.23,3.04,22.33,.72,29.34,1.28c7.07,.57,12.55,3.83,15.94,10.41,1.29-1.41,2.4-2.76,3.65-3.96C56.76,.22,68.8-1.01,76.9,4.88c4.69,3.41,6.84,8.26,8.01,13.78,.56,2.62-.09,4.33-2.07,6.09Z"/><path class="cls-1" d="M99.55,14.64c4.87-5.11,9.87-9.82,16.75-11.72,12.76-3.53,24.5-2,34.52,7.36,.96,.9,1.73,2.01,2.51,3.09,.68,.95,1.25,1.98,1.97,3.13-2.94,1.83-5.78,3.6-8.73,5.44-.49-.6-.92-1.08-1.3-1.6-7.64-10.53-24.69-11.31-32.97-3-8.6,8.64-17.33,17.15-25.94,25.78-.52,.52-.69,1.58-.7,2.39-.06,5.09-.03,10.19-.03,15.46h-11.23c0-5.1,.31-10.28-.09-15.4-.35-4.45,1.06-7.54,4.33-10.55,7.12-6.54,13.87-13.49,20.89-20.38Z"/><path class="cls-1" d="M228.25,13.66l-1.74,1.45-.09,.08-3.41,2.84-2.24,1.88c-.54-.47-1.06-.83-1.48-1.29-6.6-7.16-14.67-9.78-24.21-7.84-4.22,.86-7.5,3.33-10.45,6.28-11.24,11.2-22.63,22.27-33.61,33.72-10.94,11.39-28.61,12.36-39.66,7.02-2.03-.98-3.87-2.34-5.72-3.76l-.36-.27c-.26-.2-.52-.41-.79-.61-.03-.03-.07-.06-.11-.09-.38-.3-.74-.61-1.08-.92-.59-.51-1.12-1.02-1.59-1.49-.98-.98-1.7-1.8-2.02-2.19-.12-.14-.19-.22-.19-.22-1.96-2.52-3.38-5.37-4.32-8.49-.18-.61,.05-1.63,.47-2.09,2.86-3.08,5.82-6.07,9.05-9.38,.26,2.37,.28,4.25,.69,6.04,2.31,10.01,10.57,16.06,21.3,16.03,5.87-.02,10.74-2.07,14.88-6.17,11.49-11.39,23.08-22.69,34.51-34.13,4.63-4.63,9.92-7.9,16.41-9.45l.06-.02s.11-.03,.17-.04c.07-.02,.14-.03,.19-.04h.01c.6-.09,2.05-.3,4.07-.42h.03c1.68-.11,3.77-.14,6.09,0,2.59,.15,5.48,.54,8.44,1.31,.91,.23,1.84,.5,2.76,.83,.37,.12,.74,.25,1.1,.39,.02,0,.03,.01,.04,.02,.24,.08,.47,.18,.7,.28,.28,.11,.56,.22,.84,.35,.35,.15,.7,.31,1.05,.48l.06,.03s.05,.03,.07,.04c4.29,2.18,7.5,5.61,10.08,9.84Z"/><path class="cls-2" d="M228.25,45.92c-4.67,7.78-11.43,12.27-20.05,14.14-1.72,.37-3.5,.54-5.46,.81-10.75,.54-20.04-2.26-27.38-10.23-2.88-3.13-5.08-6.68-6.27-10.79-.17-.59-.15-1.54,.2-1.92,2.95-3.18,6-6.27,9.42-9.8,.22,10.97,4.74,18.46,14.89,21.29,10.45,2.91,19.18-.31,25.85-9.29,2.94,1.94,5.8,3.83,8.8,5.8Z"/></g></g></svg>