<svg xmlns="http://www.w3.org/2000/svg" width="104" height="72" xmlns:v="https://vecta.io/nano"><style><![CDATA[.B{stroke-width:2}.C{fill:#fee9cc}.D{stroke:#fee9cc}.E{fill:#c97400}]]></style><defs><clipPath id="A"><path transform="translate(-9628 -20983)" fill="#fff" stroke="#707070" stroke-width="1" d="M0 0h104v72H0z"/></clipPath></defs><g transform="translate(9628 20983)" clip-path="url(#A)"><g fill="#fc9100"><path d="M-9584.259-20914.511h-24.845l-.039-.923c0-2.733.864-5.318 2.499-7.477a12.55 12.55 0 0 1 3.966-3.429l.003-.002.003-.002c1.813-1.013 3.884-1.549 5.987-1.549 2.098 0 4.085.499 5.906 1.484 1.577.842 2.981 2.05 4.063 3.494l.002.002.002.002c1.635 2.158 2.499 4.744 2.499 7.477 0 .312-.018.618-.046.923z"/><path d="M-9585.213-20915.511a11.28 11.28 0 0 0-2.296-6.796l-.006-.008a11.43 11.43 0 0 0-3.73-3.21l-.009-.005c-1.674-.905-3.501-1.363-5.43-1.363s-3.834.492-5.499 1.422l-.014.007a11.54 11.54 0 0 0-3.646 3.151l-.004.005a11.28 11.28 0 0 0-2.296 6.796h22.93m1.846 2H-9610c-.084-.637-.143-1.262-.143-1.923 0-3.031 1.003-5.838 2.702-8.08a13.46 13.46 0 0 1 4.282-3.702 13.22 13.22 0 0 1 6.475-1.676c2.313 0 4.483.578 6.381 1.604a13.38 13.38 0 0 1 4.388 3.774c1.699 2.242 2.702 5.049 2.702 8.08 0 .661-.072 1.287-.154 1.923z" class="C"/></g><g class="D E"><circle cx="-9596.677" cy="-20935.768" r="5.459" stroke="none"/><circle cx="-9596.677" cy="-20935.768" r="4.459" fill="none" class="B"/></g><g fill="#fc9100"><path d="M-9543.696-20914.511h-24.845l-.039-.923c0-2.733.864-5.318 2.499-7.477a12.55 12.55 0 0 1 3.966-3.429l.003-.002.003-.002c1.815-1.014 3.886-1.549 5.987-1.549s4.085.499 5.906 1.484l.002.001.002.001c1.571.838 2.975 2.046 4.059 3.492l.002.002.002.002c1.635 2.158 2.499 4.744 2.499 7.477 0 .312-.018.618-.046.923z"/><path d="M-9544.65-20915.511c-.016-2.485-.809-4.833-2.296-6.796l-.006-.008c-.997-1.33-2.286-2.439-3.729-3.209l-.009-.005c-1.674-.905-3.501-1.363-5.43-1.363s-3.833.492-5.5 1.422l-.013.007a11.54 11.54 0 0 0-3.646 3.151l-.004.005a11.28 11.28 0 0 0-2.296 6.796h22.93m1.846 2h-26.634a14.56 14.56 0 0 1-.143-1.923c0-3.031 1.003-5.838 2.702-8.08a13.46 13.46 0 0 1 4.282-3.702c1.923-1.074 4.128-1.676 6.475-1.676 2.313 0 4.483.578 6.381 1.604 1.724.92 3.221 2.218 4.388 3.774 1.699 2.242 2.702 5.049 2.702 8.08 0 .661-.072 1.287-.154 1.923z" class="C"/></g><g class="D"><g class="E"><circle cx="-9556.114" cy="-20935.768" r="5.459" stroke="none"/><circle cx="-9556.114" cy="-20935.768" r="4.459" fill="none" class="B"/></g><path d="M-9563.478-20974.01h8.73v22.688h-36.327v-5.824" fill="none" stroke-linecap="square" class="B"/></g><g fill="#021028"><path d="M-9554.036-20946.577l-3.087-3.747h3.087v3.747z"/><path d="M-9559.243-20951.324h6.207v7.533l-6.207-7.533z" class="C"/></g><g class="D E"><path stroke="none" d="M-9601.867-20980.742h39.607v24.995h-39.607z"/><path fill="none" d="M-9600.867-20979.742h37.607v22.995h-37.607z" class="B"/></g><g fill="none"><path d="M-9601.867-20955.748h6.207l-6.207 7.533v-7.533z" class="C"/><g class="B D"><path d="M-9585.001-20971.914s-.3-2.95 2.587-3.078c3.55-.16 3.568 2.809 3.568 2.809.11.918-.174 1.84-.782 2.537s-1.483 1.103-2.408 1.118a.37.37 0 0 0-.354.365v2.457" stroke-linecap="round"/></g></g><circle cx="-9582.261" cy="-20961.763" r=".579" class="B C D"/></g></svg>