<svg xmlns="http://www.w3.org/2000/svg" width="108.119" height="82.012" viewBox="0 0 108.119 82.012">
  <defs>
    <style>
      .cls-1 {
        fill: #8be587;
      }

      .cls-1, .cls-2, .cls-3, .cls-5 {
        stroke: #e7f9e7;
        stroke-linecap: round;
        stroke-width: 4px;
      }

      .cls-1, .cls-2, .cls-3 {
        stroke-linejoin: round;
      }

      .cls-2, .cls-6 {
        fill: #1c7a09;
      }

      .cls-3 {
        fill: #30cc10;
      }

      .cls-4 {
        fill: #38f00b;
      }

      .cls-5 {
        fill: none;
        stroke-miterlimit: 10;
      }
    </style>
  </defs>
  <g id="Group_18713" data-name="Group 18713" transform="translate(-56.379 3264.301)">
    <g id="Group_18151" data-name="Group 18151" transform="translate(95.669 -3243.3)">
      <path id="Path_15224" data-name="Path 15224" class="cls-1" d="M91.718-3226.54l-14.772-6.166v-17.055l14.77,6.165Z" transform="translate(-76.946 3255.928)"/>
      <path id="Path_15225" data-name="Path 15225" class="cls-2" d="M84.3-3226.54l14.768-6.166v-17.055L84.3-3243.6Z" transform="translate(-69.532 3255.928)"/>
      <path id="Path_15226" data-name="Path 15226" class="cls-3" d="M76.946-3246.668l14.77-6.164,14.77,6.164-14.77,6.165Z" transform="translate(-76.946 3252.832)"/>
    </g>
    <g id="Group_18711" data-name="Group 18711" transform="translate(58.369 -3262.29)">
      <g id="Group_18708" data-name="Group 18708">
        <g id="Group_18707" data-name="Group 18707">
          <path id="Path_16153" data-name="Path 16153" class="cls-4" d="M8.522,74.383l-.829-5.2V60.578L2.105,48-.511,36.227l1.1-7.115,5.348-9.25L12,9.705,20,0h2.438V3.455L20,13.465,16.514,24l-1.129,5.111L20,30.408l4.438,4.084L28,48l1.721,8v6.688L28,69.184l-5.562,6.939Z"/>
          <path id="Path_16154" data-name="Path 16154" class="cls-4" d="M20.69,74.383l.829-5.2V60.578L27.107,48l2.616-11.773-1.1-7.115-5.348-9.25L17.21,9.705,9.21,0H6.771V3.455L9.21,13.465,12.7,24l1.129,5.111-4.618,1.3L4.772,34.492,1.21,48-.511,56v6.688l1.721,6.5,5.562,6.939Z" transform="translate(75.514)"/>
          <path id="Path_16147" data-name="Path 16147" class="cls-5" d="M64.479-3187.907c3.737-6,1.65-11.435.691-14.54-1.426-4.622-3.454-9.039-4.931-13.647s-2.4-9.523-1.532-14.284c1.191-6.527,5.265-11.349,8.987-16.84,3.359-4.957,6.1-9.467,9.194-14.121a2.163,2.163,0,0,1,3.839.514,8.109,8.109,0,0,1,.361,2.988,21.348,21.348,0,0,1-1.992,6.646,107.084,107.084,0,0,0-4.61,12.671" transform="translate(-58.369 3262.29)"/>
          <path id="Path_16148" data-name="Path 16148" class="cls-5" d="M66.918-3232.162q-1.039-5.193-1.652-10.459a5.79,5.79,0,0,1,.159-2.851c.759-1.859,3.213-2.432,5.164-1.966a7.863,7.863,0,0,1,4.889,3.608c1.173,1.988,1.4,4.367,1.9,6.62,1.442,6.471,2.759,9.262,3.729,15.82,1.173,7.931-3.478,13.443-5.616,18.2" transform="translate(-51.519 3277.104)"/>
          <path id="Path_16149" data-name="Path 16149" class="cls-6" d="M60.683-3226.451c.442,0,21.257,1.952,21.257,1.952l-.55,6.09-21.257-1.873Z" transform="translate(-56.592 3298.411)"/>
        </g>
      </g>
      <g id="Group_18710" data-name="Group 18710" transform="translate(74.363)">
        <g id="Group_18709" data-name="Group 18709">
          <path id="Path_16150" data-name="Path 16150" class="cls-5" d="M115.539-3187.907c-3.739-6-1.65-11.435-.693-14.54,1.428-4.622,3.454-9.039,4.931-13.647s2.4-9.523,1.534-14.284c-1.191-6.527-5.265-11.349-8.987-16.84-3.359-4.957-6.1-9.467-9.194-14.121a2.163,2.163,0,0,0-3.839.514,8.109,8.109,0,0,0-.361,2.988,21.3,21.3,0,0,0,1.992,6.646,107.087,107.087,0,0,1,4.61,12.671" transform="translate(-91.871 3262.29)"/>
          <path id="Path_16151" data-name="Path 16151" class="cls-5" d="M109.783-3232.162q1.036-5.193,1.65-10.459a5.766,5.766,0,0,0-.157-2.851c-.761-1.859-3.213-2.432-5.166-1.966a7.854,7.854,0,0,0-4.887,3.608c-1.173,1.988-1.4,4.367-1.9,6.62-1.442,6.471-2.761,9.262-3.731,15.82-1.171,7.931,3.478,13.443,5.618,18.2" transform="translate(-95.405 3277.104)"/>
          <path id="Path_16152" data-name="Path 16152" class="cls-6" d="M118.867-3226.451c-.44,0-21.257,1.952-21.257,1.952l.552,6.09,21.257-1.873Z" transform="translate(-93.183 3298.411)"/>
        </g>
      </g>
    </g>
  </g>
</svg>
